<svg width="23" height="22" viewBox="0 0 23 22" fill="none" xmlns="http://www.w3.org/2000/svg">
<path d="M8.95264 12.9643L8.86595 12.0684L8.86595 12.0684L8.95264 12.9643ZM18.614 12.0293L18.5273 11.1335L18.5273 11.1335L18.614 12.0293ZM1 0.85C0.502944 0.85 0.1 1.25294 0.1 1.75C0.1 2.24706 0.502944 2.65 1 2.65V0.85ZM4.23058 3.07585L5.11727 2.92165L4.23058 3.07585ZM4.6087 5.25L3.72201 5.40421L3.72201 5.40421L4.6087 5.25ZM5.49173 10.3274L6.37842 10.1732L6.37842 10.1732L5.49173 10.3274ZM18.4009 5.65826L18.4275 4.75866L18.4275 4.75866L18.4009 5.65826ZM21.2922 6.80394L20.4857 7.20342L20.4857 7.20342L21.2922 6.80394ZM20.4404 5.92654L20.8635 5.13223L20.8635 5.13223L20.4404 5.92654ZM20.5221 11.6533L20.0622 10.8797L20.0622 10.8797L20.5221 11.6533ZM21.3095 10.786L20.4952 10.4027L20.4952 10.4027L21.3095 10.786ZM6.96311 12.958L7.27345 12.1132L7.27345 12.1132L6.96311 12.958ZM6.02583 12.2439L5.29371 12.7674L5.29371 12.7674L6.02583 12.2439ZM3.56628 1.83674L3.93292 1.01481L3.93292 1.01481L3.56628 1.83674ZM3.98886 2.19217L3.2419 2.69422L3.2419 2.69422L3.98886 2.19217ZM9.03933 13.8601L18.7007 12.9251L18.5273 11.1335L8.86595 12.0684L9.03933 13.8601ZM2.65424 0.85H1V2.65H2.65424V0.85ZM3.34389 3.23006L3.72201 5.40421L5.49539 5.09579L5.11727 2.92165L3.34389 3.23006ZM3.72201 5.40421L4.60504 10.4816L6.37842 10.1732L5.49539 5.09579L3.72201 5.40421ZM18.4275 4.75866L4.63533 4.35039L4.58207 6.14961L18.3742 6.55787L18.4275 4.75866ZM22.4 8.8505C22.4 8.32271 22.4007 7.87375 22.3711 7.50578C22.3407 7.12717 22.2742 6.75885 22.0987 6.40446L20.4857 7.20342C20.518 7.26858 20.5553 7.38119 20.5769 7.64981C20.5993 7.92906 20.6 8.29362 20.6 8.8505H22.4ZM18.3742 6.55787C18.9309 6.57435 19.2952 6.58581 19.5737 6.61648C19.8416 6.64598 19.953 6.68666 20.0172 6.72085L20.8635 5.13223C20.5145 4.94628 20.1483 4.86887 19.7708 4.82729C19.4038 4.78688 18.955 4.77427 18.4275 4.75866L18.3742 6.55787ZM22.0987 6.40446C21.8299 5.86183 21.398 5.41695 20.8635 5.13223L20.0172 6.72085C20.2199 6.82885 20.3837 6.9976 20.4857 7.20342L22.0987 6.40446ZM18.7007 12.9251C19.1946 12.8773 19.6163 12.8371 19.9608 12.7765C20.3162 12.714 20.6585 12.6193 20.9821 12.4269L20.0622 10.8797C20.0014 10.9159 19.8975 10.96 19.6489 11.0037C19.3894 11.0494 19.0492 11.083 18.5273 11.1335L18.7007 12.9251ZM20.6 8.8505C20.6 9.37482 20.5994 9.71667 20.5789 9.97937C20.5593 10.2311 20.5254 10.3387 20.4952 10.4027L22.1238 11.1693C22.2842 10.8287 22.3455 10.4789 22.3735 10.1191C22.4006 9.77038 22.4 9.34678 22.4 8.8505H20.6ZM20.9821 12.4269C21.4797 12.131 21.8773 11.6931 22.1238 11.1693L20.4952 10.4027C20.4017 10.6014 20.2509 10.7675 20.0622 10.8797L20.9821 12.4269ZM8.86595 12.0684C8.33132 12.1202 7.98224 12.1533 7.7123 12.1581C7.45338 12.1626 7.34085 12.138 7.27345 12.1132L6.65277 13.8028C7.01359 13.9354 7.37538 13.9643 7.74396 13.9578C8.1015 13.9515 8.53309 13.9091 9.03933 13.8601L8.86595 12.0684ZM4.60504 10.4816C4.69218 10.9827 4.76584 11.4101 4.85469 11.7565C4.94627 12.1136 5.07014 12.4547 5.29371 12.7674L6.75794 11.7205C6.71618 11.6621 6.66259 11.5601 6.59825 11.3093C6.53117 11.0478 6.47045 10.7024 6.37842 10.1732L4.60504 10.4816ZM7.27345 12.1132C7.06607 12.0371 6.88644 11.9002 6.75794 11.7205L5.29371 12.7674C5.63247 13.2412 6.10605 13.602 6.65277 13.8028L7.27345 12.1132ZM2.65424 2.65C2.90691 2.65 3.04683 2.65059 3.14912 2.6583C3.24011 2.66515 3.23416 2.67407 3.19964 2.65867L3.93292 1.01481C3.70395 0.912668 3.48117 0.878215 3.28436 0.863386C3.09884 0.849408 2.87997 0.85 2.65424 0.85V2.65ZM5.11727 2.92165C5.0786 2.69926 5.04168 2.48353 4.99612 2.30315C4.94779 2.11179 4.87568 1.89821 4.73581 1.69012L3.2419 2.69422C3.22081 2.66285 3.22858 2.65545 3.25092 2.74393C3.27604 2.84338 3.3006 2.98113 3.34389 3.23006L5.11727 2.92165ZM3.19964 2.65867C3.21678 2.66632 3.23143 2.67864 3.2419 2.69422L4.73581 1.69012C4.53687 1.39412 4.25863 1.1601 3.93292 1.01481L3.19964 2.65867ZM9.6 18.25C9.6 18.8575 9.10751 19.35 8.5 19.35V21.15C10.1016 21.15 11.4 19.8516 11.4 18.25H9.6ZM8.5 19.35C7.89249 19.35 7.4 18.8575 7.4 18.25H5.6C5.6 19.8516 6.89837 21.15 8.5 21.15V19.35ZM7.4 18.25C7.4 17.6425 7.89249 17.15 8.5 17.15V15.35C6.89837 15.35 5.6 16.6484 5.6 18.25H7.4ZM8.5 17.15C9.10751 17.15 9.6 17.6425 9.6 18.25H11.4C11.4 16.6484 10.1016 15.35 8.5 15.35V17.15ZM19.1 18.25C19.1 18.8575 18.6075 19.35 18 19.35V21.15C19.6016 21.15 20.9 19.8516 20.9 18.25H19.1ZM18 19.35C17.3925 19.35 16.9 18.8575 16.9 18.25H15.1C15.1 19.8516 16.3984 21.15 18 21.15V19.35ZM16.9 18.25C16.9 17.6425 17.3925 17.15 18 17.15V15.35C16.3984 15.35 15.1 16.6484 15.1 18.25H16.9ZM18 17.15C18.6075 17.15 19.1 17.6425 19.1 18.25H20.9C20.9 16.6484 19.6016 15.35 18 15.35V17.15Z" fill="#262F56"/>
</svg>
